<?xml version="1.0" encoding="UTF-8" standalone="no"?>
<svg
   class="img-fluid"
   id="outputsvg"
   width="1102.9669"
   height="332.47385"
   viewBox="0 0 11029.669 3324.7385"
   version="1.1"
   sodipodi:docname="Bruma.svg"
   xmlns:inkscape="http://www.inkscape.org/namespaces/inkscape"
   xmlns:sodipodi="http://sodipodi.sourceforge.net/DTD/sodipodi-0.dtd"
   xmlns="http://www.w3.org/2000/svg"
   xmlns:svg="http://www.w3.org/2000/svg">
  <defs
     id="defs28" />
  <sodipodi:namedview
     id="namedview26"
     pagecolor="#ffffff"
     bordercolor="#000000"
     borderopacity="0.25"
     inkscape:showpageshadow="2"
     inkscape:pageopacity="0.0"
     inkscape:pagecheckerboard="0"
     inkscape:deskcolor="#d1d1d1"
     showgrid="false" />
  <path
     id="pGXguAjJl"
     d="m -2242.7798,1908.051 v -5120 h 7680 7679.9998 v 5120 5120 h -7679.9998 -7680 z m 4099,1365 c 340,-60 633,-205 872,-433 136,-129 235,-263 314,-425 110,-227 152,-383 162,-597 9,-209 -32,-431 -72,-389 -10,11 -10,34 2,119 18,129 12,376 -12,499 -115,591 -571,1034 -1195,1161 -155,32 -152,32 -201,-52 -59,-101 -140,-276 -179,-385 -32,-90 -32,-94 -28,-235 4,-132 7,-149 36,-223 17,-44 49,-109 70,-145 48,-84 72,-88 158,-32 83,55 137,73 229,79 234,15 519,-145 648,-365 81,-138 101,-242 68,-350 -49,-164 -195,-268 -391,-279 -241,-15 -530,161 -654,396 -71,136 -84,255 -37,351 31,65 27,93 -23,163 -45,63 -126,220 -126,244 0,8 -13,13 -35,13 -39,0 -34,12 -64,-155 -35,-197 -44,-333 -38,-599 3,-138 11,-284 16,-325 6,-41 9,-76 7,-78 -1,-2 -16,44 -32,102 l -28,105 h -32 -32 l -12,-87 c -48,-345 -293.99999,-715.99997 -566.99999,-855.99997 -29,-15 -32,-15 -38,1 -8,21 2,123 21,225 56,286.99997 224,538.99997 456.99999,684.99997 32,20 86,54 119,75 l 61,38 -6,97 c -4,53 -7,175 -7,270 v 172 h -32 c -29,0 -36,-6 -62,-53 -130,-236 -288.99999,-403 -472.99999,-496 -147,-74 -363,-121 -555,-121 H 56.220215 l 52.999995,77 c 182,264 477,442 856,518 67.99999,14 131.99999,25 141.99999,25 20,0 155,87 182,117 10,10 32,87 52,183 40,187 72,301 123,445 39,111 126,301 173,376 17,27 30,63 30,81 v 31 l -117,-7 c -226,-13 -406,-62 -617.99999,-167 -155,-76 -274,-160 -388,-273 -205,-203 -363,-488 -407,-732 -7,-39 -19,-79 -26,-89 -12.999995,-17 -15.999995,-17 -28.999995,-4 -13,13 -12,24 5,94 39.999995,167 101.999995,314 192.999995,460 268,431 697,700 1226.99999,769 60,7 261,-3 349,-19 z m 5484,-780 c 161,-28 296,-118 355,-237 62,-123 65,-146 71,-568 6,-411 6,-405 59,-462 l 26,-28 h -112 c -62,0 -112,3 -112,6 0,3 11,19 25,35 13,16 29,46 35,67 14,52 13,775 -1,844 -25,116 -96,211 -197,262 -112,57 -333,55 -455,-3 -109,-52 -181,-140 -211,-256 -13,-48 -16,-128 -16,-437 0,-412 1,-422 57,-480 15,-15 25,-29 22,-31 -2,-2 -81,-1 -176,1 l -172,4 28,24 c 46,38 51,81 51,446 1,365 9,450 54,543 104,211 378,322 669,270 z m -981,-6 c -51,-15 -103,-77 -222,-263 -60,-95 -125,-187 -145,-206 -26,-27 -34,-44 -35,-70 0,-32 4,-37 45,-54 69,-28 139,-97 177,-174 29,-59 33,-76 33,-147 0,-71 -4,-88 -33,-147 -54,-110 -140,-170 -292,-203 -56,-12 -153,-18 -387,-22 -172,-3 -313,-2 -313,2 0,4 11,16 25,27 53,42 56,77 53,651 l -3,526 -32,33 c -18,19 -33,37 -33,41 0,4 79,7 175,7 96,0 175,-2 175,-5 0,-3 -18,-21 -40,-41 -24,-22 -44,-51 -50,-74 -6,-22 -9,-123 -8,-237 l 3,-198 h 130 c 118,1 136,3 180,25 47,24 57,36 170,217 66,105 131,204 145,218 56,60 171,103 270,103 45,0 45,0 12,-9 z m -1727,-23 c 241,-68 357,-247 284,-440 -33,-89 -146,-166 -244,-166 -34,0 -35,-1 -35,-38 0,-35 4,-41 43,-62 63,-36 138,-110 160,-159 47,-107 10,-242 -86,-307 -97,-67 -203,-82 -604,-87 l -272,-2 30,31 c 17,17 35,49 40,70 11,51 11,1047 0,1097 -5,22 -20,50 -33,64 l -23,25 340,-4 c 281,-4 350,-8 400,-22 z m 4905,18 c 0,-4 -13,-21 -29,-39 -35,-40 -32,-21 -77,-550 -40,-486 -41,-607 -7,-653 l 22,-30 -34,-6 c -42,-8 -130,2 -148,18 -8,6 -93,196 -190,421 -97,226 -185,431 -197,458 -19,42 -24,47 -53,47 -30,0 -34,-5 -64,-73 -61,-141 -403,-842 -418,-856 -9,-9 -43,-16 -93,-19 -89,-5 -107,5 -73,42 27,29 27,39 -4,516 -44,673 -42,661 -73,693 l -26,27 h 88 88 l -26,-31 c -14,-17 -26,-37 -26,-45 0,-35 40,-757 46,-821 l 6,-73 h 31 c 31,0 34,4 113,163 84,170 228,470 298,622 23,50 47,99 54,110 12,20 12,20 30,-4 10,-13 83,-170 162,-350 79,-179 161,-363 182,-408 21,-45 43,-94 48,-108 8,-20 16,-25 43,-25 h 33 l 22,383 c 12,210 22,417 22,460 0,73 -2,80 -29,108 l -29,29 h 154 c 85,0 154,-3 154,-6 z m 406,-35 c -40,-47 -36,-111 14,-235 23,-54 46.9998,-106 55.9998,-114 12,-12 59,-16 267,-18 160,-2 263,1 280,7 22,9 38,33 79,118 59,128 70,182 41,221 -10,15 -23,33 -27,40 -6,9 29,12 161,12 l 168,-1 -42,-37 c -30,-26 -54,-62 -81,-122 -38,-82 -376,-883 -424,-1004 -33,-83 -52,-94 -173,-102 l -100,-7 23,22 c 18,18 22,33 22,80 0,48 -16,106 -86,307 -47,137 -108,314 -135.9998,394 -54,158 -112,308 -135,355 -8,17 -34,49 -56,73 l -41,42 h 108 108 z m -8415,-1546.99997 c 51,-90 94,-214 115,-335 20,-113 13,-274 -16,-396 -29,-118.000005 -30,-120.000005 -69,-80.000005 -123,130.000005 -208,346.000005 -218,556.000005 -6,120 3,191 39,303 35,109.99997 35,109.99997 74,64.99997 18,-21.99997 52,-72.99997 75,-112.99997 z m 461,78 c 23,-17 74,-41 112,-53 62,-19 92,-22 241,-21 169,0 171,0 283,38 148,49 231,65.99997 322,64.99997 75,-1 154,-16.99997 151,-31.99997 0,-4 -79,-9 -173,-11 -171,-2 -174,-3 -305,-44 -169,-52 -256,-65 -363,-51 -121,15 -260,69 -304,118 -27,29.99997 -13,25.99997 36,-9 z m 1023,-275 c 38,-8 76,-22 85,-31 14,-15 13,-16 -10,-10 -54,15 -208,18 -276,7 -38,-7 -116,-27 -174,-46 -134,-42 -243,-65 -317,-65 -113,1 -266,46 -343,101 -52,38 -46,50 8,14 132,-87 357,-107 569,-51 48,13 126,35 173,50 76,24 156,42 200,45 8,0 46,-6 85,-14 z"
     style="fill:none;stroke:#fffff7;stroke-width:10" />
  <path
     id="pvKMgmn6E"
     d="m 5583.2202,1893.051 c -148,-21 -138,5 -134,-333 l 3,-284 25,-20 c 22,-18 36,-19 170,-16 135,3 149,5 202,31 68,34 130,100 153,165 23,63 30,203 16,274 -16,77 -64,147 -121,176 -52,26 -153,28 -314,7 z"
     style="fill:none;stroke:#fffff7;stroke-width:10"
     inkscape:export-filename="Bruma.svg"
     inkscape:export-xdpi="96"
     inkscape:export-ydpi="96" />
  <path
     id="p1cdXb99Q"
     d="m 4237.2202,2439.051 c -46,-10 -77,-27 -90,-51 -12,-23 -13,-509 -1,-529 8,-12 44,-13 215,-8 201,5 207,6 258,34 96,52 145,166 135,314 -5,83 -27,137 -74,181 -54,52 -95,62 -258,64 -82,2 -166,-1 -185,-5 z"
     style="fill:none;stroke:#fffff7;stroke-width:10" />
  <path
     id="piPoAoFb4"
     d="m 4141.2202,1795.051 c -11,-29 1,-526 13,-538 8,-8 60,-12 155,-12 208,-1 277,26 324,127 20,42 24,67 24,147 0,128 -19,188 -77,238 -24,21 -57,41 -74,45 -17,3 -105,6 -196,6 -128,0 -165,-3 -169,-13 z"
     style="fill:none;stroke:#fffff7;stroke-width:10" />
  <path
     id="p1E0c6jA9v"
     d="m 10082.22,2049.051 c -55,-11 -48,-54 56,-371 l 92,-280 h 32 32 l 116,278 c 124,294 139,350 98,372 -21,11 -375,12 -426,1 z"
     style="fill:none;stroke:#fffff7;stroke-width:10" />
  <path
     id="p1Ha3U4z8f"
     d="m 7052.2202,2527.051 c -192,-32 -341,-131 -411,-274 -45,-93 -53,-178 -54,-545 0,-205 -4,-351 -11,-375 -7,-26 -26,-55 -55,-81 -74,-70 -73,-70 174,-77 141,-3 221,-1 230,5 20,17 14,43 -19,74 -67,63 -69,71 -69,459 0,285 3,362 16,410 44,170 176,277 361,294 155,13 252,-17 342,-107 52,-53 83,-111 100,-190 14,-68 15,-732 1,-784 -6,-20 -26,-56 -45,-78 -41,-49 -45,-77 -12,-85 12,-3 83,-4 157,-3 156,3 165,10 107,75 -64,71 -61,54 -68,473 -6,422 -9,445 -71,568 -81,162 -273,253 -528,250 -52,0 -117,-4 -145,-9 z"
     style="fill:#6d6d6d" />
  <path
     id="pA0kZkQIz"
     d="m 3866.2202,2514.051 c -16,-17 -10,-49 17,-77 14,-15 30,-44 35,-65 11,-51 11,-987 0,-1038 -5,-21 -25,-55 -44,-75 -40,-42 -50,-66 -34,-79 20,-17 728,3 805,22 117,29 180,74 219,154 23,48 28,70 28,137 0,53 -6,96 -18,126 -20,52 -97,131 -164,169 -24,13 -43,26 -43,29 0,3 16,7 35,8 54,4 138,40 183,78 56,49 84,124 85,230 0,184 -102,304 -308,361 -46,13 -115,18 -295,20 -129,2 -293,5 -363,7 -71,1 -132,-2 -138,-7 z m 716,-120 c 114,-49 166,-169 131,-307 -21,-84 -59,-137 -123,-171 -48,-27 -60,-28 -228,-35 -146,-5 -178,-4 -186,8 -12,20 -11,446 1,469 24,46 86,60 245,56 86,-2 131,-7 160,-20 z m -106,-622 c 51,-10 115,-75 134,-134 34,-106 15,-233 -45,-297 -42,-45 -121,-65 -252,-65 -73,1 -123,5 -130,12 -11,11 -22,449 -12,476 4,11 36,14 139,14 74,0 149,-3 166,-6 z"
     style="fill:#6d6d6d" />
  <path
     id="p4zAZz1Rr"
     d="m 5162.2202,2510.051 c -12,-32 -3,-59 33,-95 l 37,-38 3,-495 c 3,-559 2,-572 -63,-633 -24,-22 -35,-41 -33,-55 3,-21 4,-21 343,-20 284,0 354,3 425,18 160,33 247,91 302,204 31,63 33,72 33,177 0,98 -3,116 -27,167 -35,76 -96,140 -166,174 -31,16 -59,30 -61,31 -2,1 13,19 33,40 20,21 86,115 146,209 129,202 169,247 237,266 91,26 54,68 -60,68 -121,0 -238,-42 -297,-105 -14,-14 -79,-113 -145,-218 -112,-179 -123,-194 -168,-216 -41,-20 -64,-24 -150,-25 l -102,-1 -3,168 c -3,207 3,233 68,289 50,43 61,67 38,86 -8,6 -96,12 -215,14 -162,2 -204,0 -208,-10 z m 705,-654 c 146,-74 173,-341 49,-482 -22,-25 -65,-57 -97,-73 -50,-25 -70,-28 -172,-31 -104,-4 -118,-2 -140,16 l -25,20 -3,254 c -4,304 -13,282 134,303 151,20 203,19 254,-7 z"
     style="fill:#6d6d6d" />
  <path
     id="pJ1r8Q3vV"
     d="m 8154.2202,2511.051 c -152,-4 -162,-12 -99,-76 l 41,-42 15,-210 c 9,-116 25,-363 37,-550 l 22,-339 -42,-36 -42,-36 28,-28 c 27,-28 29,-28 135,-24 79,2 112,7 123,19 14,14 309,617 410,838 l 43,93 22,-48 c 12,-27 100,-233 197,-459 97,-226 182,-415 190,-422 21,-17 130,-26 203,-18 60,7 62,8 55,34 -4,14 -15,35 -25,46 -50,54 -50,73 -5,612 46,549 38,505 92,565 42,48 43,51 27,69 -16,17 -33,19 -204,19 -162,0 -189,-2 -194,-16 -8,-22 -10,-19 34,-63 38,-38 40,-42 40,-102 0,-51 -32,-627 -43,-764 l -3,-40 -12,28 c -6,15 -29,65 -50,110 -21,45 -103,230 -183,411 -79,180 -154,339 -167,353 -28,31 -68,28 -87,-7 -22,-40 -265,-552 -265,-559 0,-3 -38,-80 -84,-170 l -84,-165 -6,70 c -3,38 -13,200 -21,359 -8,160 -17,320 -20,358 l -5,67 41,45 c 30,33 39,49 34,65 -3,11 -9,19 -13,18 -4,-1 -65,-4 -135,-5 z"
     style="fill:#6d6d6d" />
  <path
     id="pqu4ssrGE"
     d="m 9854.2202,2510.051 c -180,-3 -185,-7 -104,-90 30,-31 62,-70 70,-87 24,-47 81,-197 135,-355 28,-80 88.9998,-257 135.9998,-394 47,-136 86,-261 86,-276 0,-15 -11,-39 -24,-53 -17,-18 -22,-33 -18,-53 l 5,-27 125,6 c 150,7 165,15 200,103 50,125 387,923 424,1004 28,63 52,97 88,130 27,25 51,54 52,65 3,19 -3,20 -214,23 -215,2 -218,2 -218,-18 0,-12 16,-42 35,-67 41,-53 42,-45 -26,-189 -38,-83 -54,-106 -76,-115 -17,-6 -110,-9 -250,-7 -181,2 -225,6 -237,18 -20,20 -95.9998,207 -95.9998,236 0,13 18,44 40,69 21.9998,25 39.9998,50 39.9998,54 0,21 -34.9998,26 -172.9998,23 z m 623.9998,-492 c 10,-6 19,-16 19,-23 0,-13 -232,-568 -236,-564 -11,11 -184,562 -180,572 7,19 36,22 219,24 93,0 166,-3 178,-9 z"
     style="fill:#6d6d6d" />
  <path
     id="pq07vHLVE"
     d="m 37.220215,1965.051 c 0,-14 31,-47 43,-47 4,0 7,14 7,30 0,25 -4,30 -25,30 -14,0 -25,-6 -25,-13 z"
     style="fill:#6d6d6d" />
  <path
     id="plmdkDDkJ"
     d="m 1477.2202,3322.051 c -529.99999,-70 -958.99999,-338 -1226.99999,-769 -91,-146 -152.999995,-293 -192.999995,-460 -11,-44 -20,-92 -20,-107 0,-35 28,-68 57,-68 35.999995,0 58.999995,35 72.999995,112 56,314 277,654 568,873 100,75 327.99999,192 448.99999,229 110,34 258,63 366,71 l 88,7 -31,-50 c -47,-76 -134,-266 -173,-377 -51,-144 -83,-258 -123,-445 -20,-96 -42,-173 -52,-183 -27,-30 -162,-117 -182,-117 -10,0 -74,-11 -141.99999,-25 -394,-78 -683,-258 -872.999995,-544 -37,-56 -65.0000002,-104 -62.00000016,-107 2.99999996,-3 72.00000016,-6 153.99999516,-6 371,2 642,99 839,304 89.99999,93 118.99999,131 198.99999,263 l 65,108 v -189 c 0,-104 3,-212 6,-241 l 7,-52 -61,-38 c -33,-21 -87,-55 -119,-75 -233.99999,-147 -397.99999,-393 -457.99999,-687.99997 -16,-77 -25,-259 -15,-307 4,-21 5,-21 65,9 152,77 280,193 384.99999,349 115,173 186,347.99997 210,523.99997 l 13,89 48,-164 48,-165 -25,-70 c -73,-202.99997 -74,-435.99997 -3,-655.99997 51,-157 205,-374.000005 252,-356.0000046 8,3 27,55.9999996 43,119.0000046 26,105 29,126 28,293 0,164 -3,189 -28,280 -33,122 -90,243 -154,326.99997 -42,56 -50,74 -65,153 -30,158 -38,235 -44,457 -6,238 4,391 42,596 20,111 35,161 35,121 0,-26 79,-181 125,-245 l 44,-62 -21,-43 c -30,-61 -37,-204 -13,-285 68,-235 280,-433 541,-505 103,-28 279,-24 364,10 134,51 215,133 251,253 77,251 -103,568 -402,708 -113,53 -217,73 -343,68 -124,-6 -167,-19 -259,-79 l -57,-38 -27,42 c -40,63 -91,178 -108,243 -8,32 -15,100 -15,151 0,80 5,105 35,190 35,99 170,379 203,420 l 17,23 97,-20 c 698,-143 1176,-676 1214,-1354 7,-112 -7,-290 -27,-354 -13,-40 7,-78 48,-88 47,-12 68,26 88,161 14,91 17,151 12,278 -9,240 -47,385 -162,624 -218,447 -653,762 -1186,859 -84,15 -343,26 -409,18 z"
     style="fill:#c9a66b" />
  <path
     id="p3uiAilmd"
     d="m 1914.2202,1040.051 c -41,-44.99997 -4,-91.99997 113,-144.99997 120,-56 269,-77 407,-57 46,6 142,30 215,53 l 133,41 174,1 c 151,0 175,2 184,17 8,12 8,24 0,41 -15,32.99997 -76,46.99997 -200,46.99997 -114,0 -190,-15 -345,-65.99997 -108,-36 -119,-38 -253,-38 -168,-1 -250,20 -336,83.99997 -60,45 -69,47 -92,22 z"
     style="fill:#c9a66b" />
  <path
     id="p1B5llUaUW"
     d="m 1913.2202,729.05103 c -54,-60 63,-146 254,-187 141,-30 295,-14 500,51 181,58 280,66 403,33 52,-14 77,-2 77,37 0,34 -31,54 -111,71 -96,20 -188,13 -322,-27 -56,-17 -131,-39 -166,-50 -209,-61 -411,-40 -547,56 -57,40 -65,42 -88,16 z"
     style="fill:#c9a66b" />
</svg>
