<?xml version="1.0" encoding="UTF-8" standalone="no"?>
<svg
   class="img-fluid"
   id="outputsvg"
   width="323.64795"
   height="332.47388"
   viewBox="0 0 3236.4794 3324.7388"
   version="1.1"
   xmlns="http://www.w3.org/2000/svg"
   xmlns:svg="http://www.w3.org/2000/svg">
  <defs
     id="defs28" />
  <path
     id="pGXguAjJl"
     d="m -2242.7797,1908.0512 v -5120 h 7680 7679.9997 v 5120 5120 h -7679.9997 -7680 z m 4099,1365 c 340,-60 633,-205 872,-433 136,-129 235,-263 314,-425 110,-227 152,-383 162,-597 9,-209 -32,-431 -72,-389 -10,11 -10,34 2,119 18,129 12,376 -12,499 -115,591 -571,1034 -1195,1161 -155,32 -152,32 -201,-52 -59,-101 -140,-276 -179,-385 -32,-90 -32,-94 -28,-235 4,-132 7,-149 36,-223 17,-44 49,-109 70,-145 48,-84 72,-88 158,-32 83,55 137,73 229,79 234,15 519,-145 648,-365 81,-138 101,-242 68,-350 -49,-164 -195,-268 -391,-279 -241,-15 -530,161 -654,396 -71,136 -84,255 -37,351 31,65 27,93 -23,163 -45,63 -126,220 -126,244 0,8 -13,13 -35,13 -39,0 -34,12 -64,-155 -35,-197 -44,-333 -38,-599 3,-138 11,-284 16,-325 6,-41 9,-76 7,-78 -1,-2 -16,44 -32,102 l -28,105 h -32 -32 l -12,-87 c -48,-345 -294,-715.99995 -567,-855.99995 -29,-15 -32,-15 -38,1 -8,21 2,123 21,225 56,286.99995 224,538.99995 457,684.99995 32,20 86,54 119,75 l 61,38 -6,97 c -4,53 -7,175 -7,270 v 172 h -32 c -29,0 -36,-6 -62,-53 -130,-236 -289,-403 -473,-496 -147,-74 -363,-121 -555,-121 H 56.220301 l 52.999999,77 c 182,264 477,442 856,518 68,14 132,25 142,25 20,0 155,87 182,117 10,10 32,87 52,183 40,187 72,301 123,445 39,111 126,301 173,376 17,27 30,63 30,81 v 31 l -117,-7 c -226,-13 -406,-62 -618,-167 -155,-76 -274,-160 -388,-273 -205,-203 -363,-488 -407,-732 -7,-39 -19,-79 -26,-89 -12.999999,-17 -15.999999,-17 -28.999999,-4 -13,13 -12,24 5,94 39.999999,167 101.999999,314 192.999999,460 268,431 697,700 1227,769 60,7 261,-3 349,-19 z m 5484,-780 c 161,-28 296,-118 355,-237 62,-123 65,-146 71,-568 6,-411 6,-405 59,-462 l 26,-28 h -112 c -62,0 -112,3 -112,6 0,3 11,19 25,35 13,16 29,46 35,67 14,52 13,775 -1,844 -25,116 -96,211 -197,262 -112,57 -333,55 -455,-3 -109,-52 -181,-140 -211,-256 -13,-48 -16,-128 -16,-437 0,-412 1,-422 57,-480 15,-15 25,-29 22,-31 -2,-2 -81,-1 -176,1 l -172,4 28,24 c 46,38 51,81 51,446 1,365 9,450 54,543 104,211 378,322 669,270 z m -981,-6 c -51,-15 -103,-77 -222,-263 -60,-95 -125,-187 -145,-206 -26,-27 -34,-44 -35,-70 0,-32 4,-37 45,-54 69,-28 139,-97 177,-174 29,-59 33,-76 33,-147 0,-71 -4,-88 -33,-147 -54,-110 -140,-170 -292,-203 -56,-12 -153,-18 -387,-22 -172,-3 -313,-2 -313,2 0,4 11,16 25,27 53,42 56,77 53,651 l -3,526 -32,33 c -18,19 -33,37 -33,41 0,4 79,7 175,7 96,0 175,-2 175,-5 0,-3 -18,-21 -40,-41 -24,-22 -44,-51 -50,-74 -6,-22 -9,-123 -8,-237 l 3,-198 h 130 c 118,1 136,3 180,25 47,24 57,36 170,217 66,105 131,204 145,218 56,60 171,103 270,103 45,0 45,0 12,-9 z m -1727,-23 c 241,-68 357,-247 284,-440 -33,-89 -146,-166 -244,-166 -34,0 -35,-1 -35,-38 0,-35 4,-41 43,-62 63,-36 138,-110 160,-159 47,-107 10,-242 -86,-307 -97,-67 -203,-82 -604,-87 l -272,-2 30,31 c 17,17 35,49 40,70 11,51 11,1047 0,1097 -5,22 -20,50 -33,64 l -23,25 340,-4 c 281,-4 350,-8 400,-22 z m 4905,18 c 0,-4 -13,-21 -29,-39 -35,-40 -32,-21 -77,-550 -40,-486 -41,-607 -7,-653 l 22,-30 -34,-6 c -42,-8 -130,2 -148,18 -8,6 -93,196 -190,421 -97,226 -185,431 -197,458 -19,42 -24,47 -53,47 -30,0 -34,-5 -64,-73 -61,-141 -403,-842 -418,-856 -9,-9 -43,-16 -93,-19 -89,-5 -107,5 -73,42 27,29 27,39 -4,516 -44,673 -42,661 -73,693 l -26,27 h 88 88 l -26,-31 c -14,-17 -26,-37 -26,-45 0,-35 40,-757 46,-821 l 6,-73 h 31 c 31,0 34,4 113,163 84,170 228,470 298,622 23,50 47,99 54,110 12,20 12,20 30,-4 10,-13 83,-170 162,-350 79,-179 161,-363 182,-408 21,-45 43,-94 48,-108 8,-20 16,-25 43,-25 h 33 l 22,383 c 12,210 22,417 22,460 0,73 -2,80 -29,108 l -29,29 h 154 c 85,0 154,-3 154,-6 z m 406,-35 c -40,-47 -36,-111 14,-235 23,-54 46.9997,-106 55.9997,-114 12,-12 59,-16 267,-18 160,-2 263,1 280,7 22,9 38,33 79,118 59,128 70,182 41,221 -10,15 -23,33 -27,40 -6,9 29,12 161,12 l 168,-1 -42,-37 c -30,-26 -54,-62 -81,-122 -38,-82 -376,-883 -424,-1004 -33,-83 -52,-94 -173,-102 l -100,-7 23,22 c 18,18 22,33 22,80 0,48 -16,106 -86,307 -47,137 -108,314 -135.9997,394 -54,158 -112,308 -135,355 -8,17 -34,49 -56,73 l -41,42 h 108 108 z m -8415,-1546.99995 c 51,-90 94,-214 115,-335 20,-113 13,-274 -16,-396 -29,-118.000009 -30,-120.000009 -69,-80.000009 -123,130.000009 -208,346.000009 -218,556.000009 -6,120 3,191 39,303 35,109.99995 35,109.99995 74,64.99995 18,-21.99995 52,-72.99995 75,-112.99995 z m 461,78 c 23,-17 74,-41 112,-53 62,-19 92,-22 241,-21 169,0 171,0 283,38 148,49 231,65.99995 322,64.99995 75,-1 154,-16.99995 151,-31.99995 0,-4 -79,-9 -173,-11 -171,-2 -174,-3 -305,-44 -169,-52 -256,-65 -363,-51 -121,15 -260,69 -304,118 -27,29.99995 -13,25.99995 36,-9 z m 1023,-275 c 38,-8 76,-22 85,-31 14,-15 13,-16 -10,-10 -54,15 -208,18 -276,7 -38,-7 -116,-27 -174,-46 -134,-42 -243,-65 -317,-65 -113,1 -266,46 -343,101 -52,38 -46,50 8,14 132,-87 357,-107 569,-51 48,13 126,35 173,50 76,24 156,42 200,45 8,0 46,-6 85,-14 z"
     style="fill:none;stroke:#fffff7;stroke-width:10" />
  <path
     id="pq07vHLVE"
     d="m 37.220301,1965.0512 c 0,-14 31,-47 43,-47 4,0 7,14 7,30 0,25 -4,30 -25,30 -14,0 -25,-6 -25,-13 z"
     style="fill:#6d6d6d" />
  <path
     id="plmdkDDkJ"
     d="m 1477.2203,3322.0512 c -530,-70 -959,-338 -1227,-769 -91,-146 -152.999999,-293 -192.999999,-460 -11,-44 -20,-92 -20,-107 0,-35 28,-68 57,-68 35.999999,0 58.999999,35 72.999999,112 56,314 277,654 568,873 100,75 328,192 449,229 110,34 258,63 366,71 l 88,7 -31,-50 c -47,-76 -134,-266 -173,-377 -51,-144 -83,-258 -123,-445 -20,-96 -42,-173 -52,-183 -27,-30 -162,-117 -182,-117 -10,0 -74,-11 -142,-25 -394,-78 -683,-258 -872.999999,-544 -37,-56 -65.0000003,-104 -62.00000021,-107 2.99999991,-3 72.00000021,-6 153.99999921,-6 371,2 642,99 839,304 90,93 119,131 199,263 l 65,108 v -189 c 0,-104 3,-212 6,-241 l 7,-52 -61,-38 c -33,-21 -87,-55 -119,-75 -234,-147 -398,-393 -458,-687.99995 -16,-77 -25,-259 -15,-307 4,-21 5,-21 65,9 152,77 280,193 385,349 115,173 186,347.99995 210,523.99995 l 13,89 48,-164 48,-165 -25,-70 c -73,-202.99995 -74,-435.99995 -3,-655.99995 51,-157 205,-374.000009 252,-356.0000086 8,3 27,55.9999996 43,119.0000086 26,105 29,126 28,293 0,164 -3,189 -28,280 -33,122 -90,243 -154,326.99995 -42,56 -50,74 -65,153 -30,158 -38,235 -44,457 -6,238 4,391 42,596 20,111 35,161 35,121 0,-26 79,-181 125,-245 l 44,-62 -21,-43 c -30,-61 -37,-204 -13,-285 68,-235 280,-433 541,-505 103,-28 279,-24 364,10 134,51 215,133 251,253 77,251 -103,568 -402,708 -113,53 -217,73 -343,68 -124,-6 -167,-19 -259,-79 l -57,-38 -27,42 c -40,63 -91,178 -108,243 -8,32 -15,100 -15,151 0,80 5,105 35,190 35,99 170,379 203,420 l 17,23 97,-20 c 698,-143 1176,-676 1214,-1354 7,-112 -7,-290 -27,-354 -13,-40 7,-78 48,-88 47,-12 68,26 88,161 14,91 17,151 12,278 -9,240 -47,385 -162,624 -218,447 -653,762 -1186,859 -84,15 -343,26 -409,18 z"
     style="fill:#c9a66b" />
  <path
     id="p3uiAilmd"
     d="m 1914.2203,1040.0512 c -41,-44.99995 -4,-91.99995 113,-144.99995 120,-56 269,-77 407,-57 46,6 142,30 215,53 l 133,41 174,1 c 151,0 175,2 184,17 8,12 8,24 0,41 -15,32.99995 -76,46.99995 -200,46.99995 -114,0 -190,-15 -345,-65.99995 -108,-36 -119,-38 -253,-38 -168,-1 -250,20 -336,83.99995 -60,45 -69,47 -92,22 z"
     style="fill:#c9a66b" />
  <path
     id="p1B5llUaUW"
     d="m 1913.2203,729.05125 c -54,-60 63,-146 254,-187 141,-30 295,-14 500,51 181,58 280,66 403,33 52,-14 77,-2 77,37 0,34 -31,54 -111,71 -96,20 -188,13 -322,-27 -56,-17 -131,-39 -166,-50 -209,-61 -411,-40 -547,56 -57,40 -65,42 -88,16 z"
     style="fill:#c9a66b" />
</svg>
